<mxfile host="Electron" modified="2023-04-14T16:01:58.142Z" agent="Mozilla/5.0 (Macintosh; Intel Mac OS X 10_15_7) AppleWebKit/537.36 (KHTML, like Gecko) draw.io/21.1.2 Chrome/106.0.5249.199 Electron/21.4.3 Safari/537.36" etag="mo_nu23x6AbUjT9jQFD1" version="21.1.2" type="device">
  <diagram name="Seite-1" id="wuMLF0OxSPpwG6tJzxKC">
    <mxGraphModel dx="934" dy="705" grid="1" gridSize="10" guides="1" tooltips="1" connect="1" arrows="1" fold="1" page="1" pageScale="1" pageWidth="1169" pageHeight="827" math="0" shadow="0">
      <root>
        <mxCell id="0" />
        <mxCell id="1" parent="0" />
        <mxCell id="IPLzQBMhlxklqPSGCdYf-1" value="Sender / Owner" style="sketch=0;outlineConnect=0;fontColor=#232F3E;gradientColor=none;fillColor=#232F3D;strokeColor=none;dashed=0;verticalLabelPosition=bottom;verticalAlign=top;align=center;html=1;fontSize=12;fontStyle=0;aspect=fixed;pointerEvents=1;shape=mxgraph.aws4.user;" parent="1" vertex="1">
          <mxGeometry x="240" y="375" width="78" height="78" as="geometry" />
        </mxCell>
        <mxCell id="IPLzQBMhlxklqPSGCdYf-2" value="Recipient" style="sketch=0;outlineConnect=0;fontColor=#232F3E;gradientColor=none;fillColor=#232F3D;strokeColor=none;dashed=0;verticalLabelPosition=bottom;verticalAlign=top;align=center;html=1;fontSize=12;fontStyle=0;aspect=fixed;pointerEvents=1;shape=mxgraph.aws4.user;" parent="1" vertex="1">
          <mxGeometry x="850" y="375" width="78" height="78" as="geometry" />
        </mxCell>
        <mxCell id="IPLzQBMhlxklqPSGCdYf-9" value="" style="endArrow=classic;html=1;rounded=0;strokeWidth=2;" parent="1" edge="1">
          <mxGeometry width="50" height="50" relative="1" as="geometry">
            <mxPoint x="325" y="420" as="sourcePoint" />
            <mxPoint x="845" y="420" as="targetPoint" />
          </mxGeometry>
        </mxCell>
        <mxCell id="IPLzQBMhlxklqPSGCdYf-10" value="" style="group" parent="1" vertex="1" connectable="0">
          <mxGeometry x="497" y="369" width="174.18000000000006" height="89.73000000000002" as="geometry" />
        </mxCell>
        <mxCell id="IPLzQBMhlxklqPSGCdYf-11" value="" style="sketch=0;outlineConnect=0;fontColor=#232F3E;gradientColor=none;fillColor=#232F3D;strokeColor=none;dashed=0;verticalLabelPosition=bottom;verticalAlign=top;align=center;html=1;fontSize=12;fontStyle=0;aspect=fixed;pointerEvents=1;shape=mxgraph.aws4.user;" parent="IPLzQBMhlxklqPSGCdYf-10" vertex="1">
          <mxGeometry x="133" y="24" width="21" height="21" as="geometry" />
        </mxCell>
        <mxCell id="IPLzQBMhlxklqPSGCdYf-4" value="Carrier" style="shape=mxgraph.signs.transportation.truck_1;html=1;pointerEvents=1;fillColor=default;strokeColor=default;verticalLabelPosition=bottom;verticalAlign=top;align=center;strokeWidth=2;shadow=0;flipH=1;" parent="IPLzQBMhlxklqPSGCdYf-10" vertex="1">
          <mxGeometry width="174.18" height="89.73" as="geometry" />
        </mxCell>
        <mxCell id="IPLzQBMhlxklqPSGCdYf-5" value="" style="outlineConnect=0;dashed=0;verticalLabelPosition=bottom;verticalAlign=top;align=center;html=1;shape=mxgraph.aws3.hardware_board;fillColor=#000000;gradientColor=none;" parent="IPLzQBMhlxklqPSGCdYf-10" vertex="1">
          <mxGeometry x="68.79999999999995" y="5.7900000000000205" width="36.59" height="43.77" as="geometry" />
        </mxCell>
        <mxCell id="IPLzQBMhlxklqPSGCdYf-8" value="" style="shape=image;verticalLabelPosition=bottom;labelBackgroundColor=default;verticalAlign=top;aspect=fixed;imageAspect=0;image=data:image/svg+xml,PHN2ZyB4bWxucz0iaHR0cDovL3d3dy53My5vcmcvMjAwMC9zdmciIHZpZXdCb3g9IjAgMCAxMDAgMTI1IiB4bWw6c3BhY2U9InByZXNlcnZlIj4mI3hhOyAgPGcgdHJhbnNmb3JtPSJ0cmFuc2xhdGUoMCAxNCkiPiYjeGE7ICAgIDxwYXRoIGQ9Ik01MS4yNjMgMjMuMzMzYzIuNTQ5LjYxNSA2LjUwMiAyLjQ1OCA3LjkzIDYuMjY1LjgzIDIuMjA5Ljc3NCA3LjA2Mi41ODYgMTAuNzQ3LS42NzQgMy45MDYtMi4yMzQgNi43NTQtNC42NjIgOC40ODItMy4yNSAyLjMxMy03LjMyMiAyLjA3NS05LjI4OCAxLjc3NC0yLjY4My0xLjMxMi00LjI2Ni01LjMwMS00Ljk1My04LjU1Ny0uODA0LTMuODA1LS4zMTYtNS43ODktLjMxNi01Ljc4OVYzNC44M2MtLjcxNC0xLjkwMy0uMDc5LTcuNTMzLjg3Mi05LjQzNy45NTEtMS45MDMgMy45NzQtMS45MzQgNC44MzctMi42MTcgMS4yMDgtLjk1NCAyLjgzMy01LjA4IDMuMzA5LTYuMzM0LTkuOTA2IDEuMjQ1LTEyLjM3OSA5LjU5LTEyLjg2MiAxMS44MDYtMS4xODEgMS4xMjYtMi4xNTEgMy4xNDgtMS4xNjMgNS4zMzYtLjM1NC40NTUtLjcxIDEuMDc4LS44NTIgMS44NjEtLjExOC42NTQtLjExNCAxLjYxMy40NDMgMi43MjktLjk4NCAxLjkwNi0zLjA4NCA3LjIzNi0uNzg0IDE0LjgwOSAyLjIxOCA3LjMwOCAxLjI3NSA5LjI2My42NjYgMTAuMTU0LTEuNDkzLjU4OC02LjQxNyAyLjgxNi04LjQ4MiA3LjM1NC0uNTkxLjI2Mi0xLjI0NC42ODQtMS44NTkgMS4yODJWODMuNjVoNTAuNzcxVjYzLjE3Yy0xLjQ3OS0yLjE3Mi0zLjIwNC00LjUyMS00LjcwMy02LjA2OC0uNDEyLTIuMzY5LTIuNDUzLTE0LjI1NS0yLjUyMi0xOC40MDgtLjAzOS0yLjM0MS0uMTI5LTcuODI0LTIuMTI5LTEyLjc5MS0yLjMyOC01Ljc4Ny02LjU5NS05LjA2NC0xMi4zOTItOS41NTVoLTMuMTRjLTMuNjk3IDYuMDczLS4xMzMgNi43ODYuNjkzIDYuOTg1em05LjI3OCAzNy43MDZjMCAuNjM5LjI0OCAxLjIxNS42NDkgMS42NDYtLjM0OC4zMDctLjU3MS43NDgtLjU3MSAxLjI0OCAwIC4yMjcuMDQ3LjQ0LjEyOS42NDEtLjUxOS40ODQtLjg0MiAxLjE3Mi0uODQyIDEuOTM4IDAgLjQ2NS4xMi45LjMyOSAxLjI4MS0uNTM4LjQzOC0uODg3IDEuMTA0LS44ODcgMS44NTIgMCAuMzgzLjA5NC43NDQuMjU2IDEuMDY0LTIuMzEzIDEuMDY4LTQuOTM0IDQuMzI2LTQuOTM0IDQuMzI2LTUuMjMyLjM5Ni0xNy4yMDgtMS41MDgtMTcuNjg0LTUuNDczLS40NzctMy45NjUgMTAuODY0LTEyLjQ0OSAxMC44NjQtMTIuNDQ5IDAtLjQ4OC0uMjcyLTIuNzAzLS40OC00LjMyNC4yOTYuMDE2LjYwNi4wMjUuOTI4LjAyNSAyLjM1NCAwIDUuMzQxLS40NzYgNy45NjgtMi4zMzggMS4yNTgtLjg5MiAyLjMxNC0yLjAyMyAzLjE3NC0zLjM4LjE3NSA1LjEwNCAxLjMzOCAxMS4yODYgMS4zMzggMTEuMjg2bC43NjcuNjk3Yy0uNjA4LjQ0MS0xLjAwNCAxLjE1My0xLjAwNCAxLjk2eiIvPiYjeGE7ICAgIDxwYXRoIGQ9Ik04OC40MjYgOTIuNzIzYy4yNzEtLjE3OC41MzEtLjM4Ny43NzEtLjYyNyAxLjg2Mi0xLjg2MSAxLjg2Mi00Ljg4MSAwLTYuNzQtLjUyMy0uNTI0LTEuMTQtLjg5Ni0xLjc5NC0xLjEyNS43OTctMi42NzYgMi4yNjUtOS44NDgtLjY0Ny0yMC4yMDEgMS43ODUtLjMwNSAzLjE0Ni0xLjg1NCAzLjE0Ni0zLjcyNyAwLTEuMTM5LS41MDQtMi4xNTgtMS4yOTktMi44NTIgMS44My0xLjM2NSAzLjA4OC00LjE4OCAzLjA4OC03LjQ1MiAwLTMuMjYzLTEuMjU4LTYuMDg1LTMuMDg4LTcuNDUuNzk1LS42OTQgMS4yOTktMS43MTMgMS4yOTktMi44NTEgMC0xLjg3MS0xLjM1OS0zLjQyMS0zLjE0Ni0zLjcyNiAyLjU4Mi05LjE4MiAxLjcyNC0xNS44Ni45MzgtMTkuMTIxLjU0Ny0uMjMxIDEuMDU5LS41NjYgMS41MDUtMS4wMTIgMS44NjItMS44NjIgMS44NjItNC44OCAwLTYuNzQyLS4yMzktLjI0LS41LS40NDktLjc3Mi0uNjI3LjQyNC0uMi44MjYtLjQ3NyAxLjE4Ni0uODM1IDEuNDk0LTEuNDkzIDEuNjI4LTMuNzgyLjI5OS01LjExLTEuMzI3LTEuMzI5LTMuNjE2LTEuMTk1LTUuMTEuMjk4LS4zNTYuMzU3LS42MzMuNzYxLS44MzQgMS4xODUtLjE3OS0uMjc0LS4zODgtLjUzMy0uNjI3LS43NzMtMS44Ni0xLjg2MS00Ljg4MS0xLjg2MS02Ljc0MSAwLS4zNDEuMzQtLjYxMy43Mi0uODMgMS4xMjMtMS45MzktLjY5Mi02LjEwMy0xLjY1NC0xMS45NTEtLjE4OS0uNTYtMS4zOTQtMS45MTgtMi4zOC0zLjUxMi0yLjM4LTEuMTQgMC0yLjE1Ni41MDItMi44NTMgMS4yOTdDNTYuMDg2IDEuMjU3IDUzLjI2NSAwIDUwIDBjLTMuMjYzIDAtNi4wODQgMS4yNTctNy40NSAzLjA4Ni0uNjkzLS43OTQtMS43MTQtMS4yOTYtMi44NTEtMS4yOTYtMS41OTMgMC0yLjk1NC45ODYtMy41MTIgMi4zOC01Ljg1Mi0xLjQ2NC0xMC4wMTMtLjUwMy0xMS45NTIuMTg5LS4yMTUtLjQwMy0uNDktLjc4My0uODMtMS4xMjMtMS44NjItMS44NjEtNC44OC0xLjg2MS02Ljc0MiAwLS4yNC4yNC0uNDQ5LjUtLjYyNi43NzMtLjItLjQyNC0uNDc5LS44MjgtLjgzNC0xLjE4NS0xLjQ5NC0xLjQ5NC0zLjc4Mi0xLjYyNy01LjExMS0uMjk4LTEuMzI4IDEuMzI5LTEuMTkzIDMuNjE3LjMgNS4xMS4zNTYuMzU4Ljc2MS42MzUgMS4xODUuODM1LS4yNzUuMTc5LS41MzQuMzg3LS43NzUuNjI4LTEuODYgMS44NjEtMS44NiA0Ljg4IDAgNi43NDIuNDQ2LjQ0NS45NTguNzgzIDEuNTA1IDEuMDE0LS43ODQgMy4yNjItMS42NDUgOS45MzkuOTM4IDE5LjExOS0xLjc4NS4zMDUtMy4xNDYgMS44NTUtMy4xNDYgMy43MjYgMCAxLjEzOC41MDIgMi4xNTcgMS4yOTggMi44NTFDOS41NjUgNDMuOTE2IDguMzEgNDYuNzM5IDguMzEgNTBjMCAzLjI2NCAxLjI1NyA2LjA4NSAzLjA4NyA3LjQ1MS0uNzk0LjY5My0xLjI5OCAxLjcxMy0xLjI5OCAyLjg1MiAwIDEuODcxIDEuMzU5IDMuNDIyIDMuMTQ2IDMuNzI3LTIuOTE0IDEwLjM1NS0xLjQ0NiAxNy41MjUtLjY0OCAyMC4yMDMtLjY1NC4yMjktMS4yNzEuNjAxLTEuNzk1IDEuMTIzLTEuODYgMS44NjEtMS44NiA0Ljg4MSAwIDYuNzQyLjI0LjIzOC41LjQ0Ny43NzMuNjI3LS40MjQuMTk5LS44MjcuNDc4LTEuMTg1LjgzNC0xLjQ5MyAxLjQ5NC0xLjYyOCAzLjc4MS0uMyA1LjEwOSAxLjMyOSAxLjMzIDMuNjE3IDEuMTk1IDUuMTExLS4yOTkuMzU2LS4zNTUuNjM0LS43Ni44MzQtMS4xODQuMTc4LjI3Mi4zODcuNTMyLjYyNy43NzEgMS44NjEgMS44NjIgNC44OCAxLjg2MiA2Ljc0MiAwIC42MjUtLjYyMyAxLjAzNS0xLjM3OSAxLjIzOS0yLjE3OSAyLjA4My42NzEgNi4wNzQgMS40MjEgMTEuNTQzLjA1Mi41NTggMS4zOTYgMS45MTggMi4zODEgMy41MTIgMi4zODEgMS4xMzcgMCAyLjE1Ny0uNTAyIDIuODUxLTEuMjk3IDEuMzY2IDEuODMxIDQuMTg4IDMuMDg3IDcuNDUgMy4wODcgMy4yNjQgMCA2LjA4NS0xLjI1NiA3LjQ1MS0zLjA4Ni42OTMuNzk1IDEuNzEzIDEuMjk3IDIuODUxIDEuMjk3IDEuNTk1IDAgMi45NTUtLjk4NCAzLjUxMy0yLjM4MSA1LjQ3IDEuMzY5IDkuNDYxLjYxOSAxMS41NDMtLjA1MS4yMDUuNzk5LjYxNSAxLjU1NSAxLjI0IDIuMTc4IDEuODYgMS44NjMgNC44NzkgMS44NjMgNi43MzkgMCAuMjQtLjIzOC40NDktLjQ5OC42MjctLjc3MS4yMDEuNDI0LjQ3OS44MjguODM0IDEuMTg1IDEuNDk0IDEuNDk0IDMuNzgzIDEuNjI5IDUuMTExLjI5OSAxLjMyOS0xLjMyOCAxLjE5NC0zLjYxNC0uMy01LjEwOC0uMzU2LS4zNjMtLjc1Ny0uNjQtMS4xODItLjgzOXptLTkuNzg2LTUuNzc0SDIxLjQ5NVYxMy4yNzNINzguNjR2NzMuNjc2eiIvPiYjeGE7ICA8L2c+JiN4YTs8L3N2Zz4=;" parent="IPLzQBMhlxklqPSGCdYf-10" vertex="1">
          <mxGeometry x="10" width="44.29" height="55.36" as="geometry" />
        </mxCell>
        <mxCell id="C2GYQ1MyP1EtDaK4bqPm-1" value="" style="endArrow=classic;dashed=1;html=1;rounded=0;exitX=0.5;exitY=0;exitDx=0;exitDy=0;exitPerimeter=0;strokeWidth=2;endFill=1;" edge="1" parent="1" source="IPLzQBMhlxklqPSGCdYf-4" target="C2GYQ1MyP1EtDaK4bqPm-2">
          <mxGeometry width="50" height="50" relative="1" as="geometry">
            <mxPoint x="720" y="340" as="sourcePoint" />
            <mxPoint x="760" y="170" as="targetPoint" />
          </mxGeometry>
        </mxCell>
        <mxCell id="C2GYQ1MyP1EtDaK4bqPm-8" value="Logging" style="edgeLabel;html=1;align=center;verticalAlign=middle;resizable=0;points=[];" vertex="1" connectable="0" parent="C2GYQ1MyP1EtDaK4bqPm-1">
          <mxGeometry x="-0.1062" y="2" relative="1" as="geometry">
            <mxPoint as="offset" />
          </mxGeometry>
        </mxCell>
        <mxCell id="C2GYQ1MyP1EtDaK4bqPm-7" value="" style="edgeStyle=orthogonalEdgeStyle;rounded=0;orthogonalLoop=1;jettySize=auto;html=1;dashed=1;" edge="1" parent="1" source="C2GYQ1MyP1EtDaK4bqPm-2" target="C2GYQ1MyP1EtDaK4bqPm-5">
          <mxGeometry relative="1" as="geometry">
            <Array as="points">
              <mxPoint x="740" y="270" />
              <mxPoint x="740" y="270" />
            </Array>
          </mxGeometry>
        </mxCell>
        <mxCell id="C2GYQ1MyP1EtDaK4bqPm-9" value="Storing" style="edgeLabel;html=1;align=center;verticalAlign=middle;resizable=0;points=[];" vertex="1" connectable="0" parent="C2GYQ1MyP1EtDaK4bqPm-7">
          <mxGeometry x="-0.0288" y="1" relative="1" as="geometry">
            <mxPoint as="offset" />
          </mxGeometry>
        </mxCell>
        <mxCell id="C2GYQ1MyP1EtDaK4bqPm-2" value="RPC Server" style="sketch=0;outlineConnect=0;fontColor=#232F3E;gradientColor=none;fillColor=#232F3D;strokeColor=none;dashed=0;verticalLabelPosition=top;verticalAlign=bottom;align=center;html=1;fontSize=12;fontStyle=0;aspect=fixed;pointerEvents=1;shape=mxgraph.aws4.traditional_server;labelPosition=center;" vertex="1" parent="1">
          <mxGeometry x="650" y="220" width="45" height="78" as="geometry" />
        </mxCell>
        <mxCell id="C2GYQ1MyP1EtDaK4bqPm-10" value="" style="edgeStyle=orthogonalEdgeStyle;rounded=0;orthogonalLoop=1;jettySize=auto;html=1;dashed=1;" edge="1" parent="1" source="C2GYQ1MyP1EtDaK4bqPm-5" target="C2GYQ1MyP1EtDaK4bqPm-2">
          <mxGeometry relative="1" as="geometry">
            <Array as="points">
              <mxPoint x="770" y="240" />
              <mxPoint x="770" y="240" />
            </Array>
          </mxGeometry>
        </mxCell>
        <mxCell id="C2GYQ1MyP1EtDaK4bqPm-11" value="Retrieving" style="edgeLabel;html=1;align=center;verticalAlign=middle;resizable=0;points=[];" vertex="1" connectable="0" parent="C2GYQ1MyP1EtDaK4bqPm-10">
          <mxGeometry x="0.311" y="-2" relative="1" as="geometry">
            <mxPoint x="21" y="2" as="offset" />
          </mxGeometry>
        </mxCell>
        <mxCell id="C2GYQ1MyP1EtDaK4bqPm-5" value="Blockchain" style="sketch=0;outlineConnect=0;fontColor=#232F3E;gradientColor=none;fillColor=#000000;strokeColor=none;dashed=0;verticalLabelPosition=top;verticalAlign=bottom;align=center;html=1;fontSize=12;fontStyle=0;aspect=fixed;shape=mxgraph.aws4.blockchain_resource;labelPosition=center;" vertex="1" parent="1">
          <mxGeometry x="790" y="240" width="103.43" height="30.5" as="geometry" />
        </mxCell>
        <mxCell id="C2GYQ1MyP1EtDaK4bqPm-14" value="" style="endArrow=classic;dashed=1;html=1;rounded=0;strokeWidth=2;endFill=1;" edge="1" parent="1" source="IPLzQBMhlxklqPSGCdYf-1" target="C2GYQ1MyP1EtDaK4bqPm-2">
          <mxGeometry width="50" height="50" relative="1" as="geometry">
            <mxPoint x="300" y="381" as="sourcePoint" />
            <mxPoint x="357" y="280" as="targetPoint" />
          </mxGeometry>
        </mxCell>
        <mxCell id="C2GYQ1MyP1EtDaK4bqPm-15" value="Interaction" style="edgeLabel;html=1;align=center;verticalAlign=middle;resizable=0;points=[];" vertex="1" connectable="0" parent="C2GYQ1MyP1EtDaK4bqPm-14">
          <mxGeometry x="-0.1062" y="2" relative="1" as="geometry">
            <mxPoint as="offset" />
          </mxGeometry>
        </mxCell>
        <mxCell id="C2GYQ1MyP1EtDaK4bqPm-16" value="" style="endArrow=classic;dashed=1;html=1;rounded=0;strokeWidth=2;endFill=1;" edge="1" parent="1" source="IPLzQBMhlxklqPSGCdYf-2" target="C2GYQ1MyP1EtDaK4bqPm-2">
          <mxGeometry width="50" height="50" relative="1" as="geometry">
            <mxPoint x="740" y="401" as="sourcePoint" />
            <mxPoint x="797" y="300" as="targetPoint" />
          </mxGeometry>
        </mxCell>
        <mxCell id="C2GYQ1MyP1EtDaK4bqPm-17" value="Interaction" style="edgeLabel;html=1;align=center;verticalAlign=middle;resizable=0;points=[];" vertex="1" connectable="0" parent="C2GYQ1MyP1EtDaK4bqPm-16">
          <mxGeometry x="-0.1062" y="2" relative="1" as="geometry">
            <mxPoint as="offset" />
          </mxGeometry>
        </mxCell>
      </root>
    </mxGraphModel>
  </diagram>
</mxfile>
